<svg width="24" height="20" viewBox="0 0 24 20" fill="none" xmlns="http://www.w3.org/2000/svg">
<path d="M23.643 2.93702C22.808 3.30702 21.911 3.55702 20.968 3.67002C21.941 3.08781 22.6689 2.17148 23.016 1.09202C22.1018 1.63501 21.1013 2.01721 20.058 2.22202C19.3564 1.47288 18.4271 0.976342 17.4143 0.80949C16.4016 0.642638 15.3621 0.814807 14.4572 1.29927C13.5524 1.78373 12.8328 2.55338 12.4102 3.48872C11.9875 4.42406 11.8855 5.47277 12.12 6.47202C10.2677 6.37901 8.45562 5.89757 6.80142 5.05892C5.14722 4.22028 3.68784 3.04318 2.518 1.60402C2.118 2.29402 1.888 3.09402 1.888 3.94602C1.88755 4.71301 2.07643 5.46826 2.43788 6.14475C2.79932 6.82124 3.32216 7.39805 3.96 7.82402C3.22027 7.80048 2.49687 7.6006 1.85 7.24102V7.30102C1.84992 8.37676 2.22203 9.41939 2.90318 10.252C3.58433 11.0846 4.53257 11.6559 5.587 11.869C4.90078 12.0547 4.18133 12.0821 3.483 11.949C3.78049 12.8746 4.35999 13.684 5.14036 14.2639C5.92074 14.8438 6.86291 15.1652 7.835 15.183C6.18483 16.4784 4.14688 17.1811 2.049 17.178C1.67738 17.1781 1.30607 17.1564 0.936996 17.113C3.06647 18.4822 5.54534 19.2088 8.077 19.206C16.647 19.206 21.332 12.108 21.332 5.95202C21.332 5.75202 21.327 5.55002 21.318 5.35002C22.2293 4.69099 23.0159 3.87491 23.641 2.94002L23.643 2.93702Z" fill="#F1AC73"/>
</svg>
